<?xml version="1.0" encoding="UTF-8"?>
<svg width="92px" height="25px" viewBox="0 0 92 25" version="1.1" xmlns="http://www.w3.org/2000/svg" xmlns:xlink="http://www.w3.org/1999/xlink">
    <!-- Generator: Sketch 49.3 (51167) - http://www.bohemiancoding.com/sketch -->
    <title>Logo</title>
    <desc>Created with Sketch.</desc>
    <defs></defs>
    <g id="Landing-Page" stroke="none" stroke-width="1" fill="none" fill-rule="evenodd">
        <g id="Landing" transform="translate(-255.000000, -2156.000000)" fill="#333333">
            <g id="Logo" transform="translate(255.000000, 2156.000000)">
                <path d="M0.100193611,8.05084746 L2.60503388,8.05084746 L2.60503388,25 L0.100193611,25 L0.100193611,8.05084746 Z M2.70522749,1.88135593 L2.70522749,5.20338983 L0,5.20338983 L0,1.88135593 L2.70522749,1.88135593 Z M9.45159729,8.05084746 L9.45159729,10.6949153 C10.052762,9.88135186 10.7875078,9.19209322 11.6558567,8.62711864 C12.5242057,8.06214407 13.5149993,7.77966102 14.6282672,7.77966102 C15.7415351,7.77966102 16.6989311,7.93785153 17.500484,8.25423729 C18.3020369,8.57062305 19.0033852,9.04519458 19.6045499,9.6779661 C20.9850021,11.0565041 21.6752178,12.8756949 21.6752178,15.1355932 L21.6752178,25 L19.1703775,25 L19.1703775,15.2033898 C19.1703775,13.64406 18.7362096,12.4011346 17.8678606,11.4745763 C16.9995116,10.548018 15.8751279,10.0847458 14.4946757,10.0847458 C13.0919581,10.0847458 11.9007793,10.5593173 10.9211036,11.5084746 C9.94142782,12.4802308 9.45159729,13.7231563 9.45159729,15.2372881 L9.45159729,25 L6.94675702,25 L6.94675702,8.05084746 L9.45159729,8.05084746 Z M33.0304937,3.40677966 C31.8504297,3.40677966 30.965395,3.67231373 30.375363,4.20338983 C29.785331,4.73446593 29.4903195,5.58756475 29.4903195,6.76271186 L29.4903195,8.05084746 L33.3644724,8.05084746 L33.3644724,10.2881356 L29.4903195,10.2881356 L29.4903195,25 L26.9854792,25 L26.9854792,10.2881356 L24.1132623,10.2881356 L24.1132623,8.05084746 L26.9854792,8.05084746 L26.9854792,6.55932203 C26.9854792,4.70620542 27.5309723,3.31638881 28.6219748,2.38983051 C29.7129774,1.4632722 31.226999,1 33.1640852,1 L33.3644724,1 L33.3644724,3.40677966 L33.0304937,3.40677966 Z M64.4801549,7.77966102 L64.4801549,10.3220339 L64.1795741,10.3220339 C62.37608,10.3220339 60.9065884,11.0564898 59.7710552,12.5254237 C58.702318,13.9265607 58.1679574,15.5988603 58.1679574,17.5423729 L58.1679574,25 L55.6631171,25 L55.6631171,8.05084746 L58.1679574,8.05084746 L58.1679574,12.220339 C58.702326,10.4576183 59.8601073,9.15819627 61.6413359,8.3220339 C62.3760927,7.96045017 63.2666937,7.77966102 64.3131655,7.77966102 L64.4801549,7.77966102 Z M69.6902227,10.6271186 C70.8034906,8.72880407 72.4956324,7.77966102 74.7666989,7.77966102 C75.8799668,7.77966102 76.9097242,8.07909305 77.8560019,8.6779661 C78.8022797,9.27683915 79.5425917,10.1186386 80.0769603,11.2033898 C80.8339825,9.7796539 82.0140288,8.76271492 83.6171346,8.15254237 C84.2628299,7.90395356 84.9920095,7.77966102 85.8046951,7.77966102 C86.6173806,7.77966102 87.3966565,7.94350119 88.142546,8.27118644 C88.8884355,8.59887169 89.55082,9.06779356 90.1297193,9.6779661 C91.3765793,11.0339051 92,12.7288034 92,14.7627119 L92,25 L89.4951597,25 L89.4951597,14.8305085 C89.4951597,13.4293715 89.1055218,12.2768407 88.3262343,11.3728814 C87.5469467,10.51412 86.5561532,10.0847458 85.3538238,10.0847458 C84.0846984,10.0847458 83.0271097,10.5028207 82.1810261,11.3389831 C81.2904118,12.1977444 80.8451113,13.3728739 80.8451113,14.8644068 L80.8451113,25 L78.3402711,25 L78.3402711,14.8305085 C78.3402711,13.4293715 77.9506331,12.2768407 77.1713456,11.3728814 C76.3920581,10.51412 75.4012645,10.0847458 74.1989351,10.0847458 C72.9298097,10.0847458 71.8722211,10.5028207 71.0261375,11.3389831 C70.1355231,12.1977444 69.6902227,13.3728739 69.6902227,14.8644068 L69.6902227,25 L67.1853824,25 L67.1853824,8.05084746 L69.6902227,8.05084746 L69.6902227,10.6271186 Z" id="inf-rm"></path>
                <path d="M45,14 C41.1340068,14 38,10.8659932 38,7 C38,3.13400675 41.1340068,0 45,0 C48.8659932,0 52,3.13400675 52,7 C52,10.8659932 48.8659932,14 45,14 Z M45,11.4285714 C47.4458325,11.4285714 49.4285714,9.44583246 49.4285714,7 C49.4285714,4.55416754 47.4458325,2.57142857 45,2.57142857 C42.5541675,2.57142857 40.5714286,4.55416754 40.5714286,7 C40.5714286,9.44583246 42.5541675,11.4285714 45,11.4285714 Z" id="Oval" fill-rule="nonzero"></path>
            </g>
        </g>
    </g>
</svg>