<?xml version="1.0" encoding="UTF-8"?>
<svg width="1440px" height="464px" viewBox="0 0 1440 464" version="1.1" xmlns="http://www.w3.org/2000/svg" xmlns:xlink="http://www.w3.org/1999/xlink">
    <!-- Generator: Sketch 49.3 (51167) - http://www.bohemiancoding.com/sketch -->
    <title>Page 1</title>
    <desc>Created with Sketch.</desc>
    <defs>
        <rect id="path-1" x="0" y="0" width="1440" height="532"></rect>
    </defs>
    <g id="Landing-Page" stroke="none" stroke-width="1" fill="none" fill-rule="evenodd">
        <g id="Landing" transform="translate(0.000000, -1034.000000)">
            <g id="Page-1" transform="translate(0.000000, 990.000000)">
                <mask id="mask-2" fill="white">
                    <use xlink:href="#path-1"></use>
                </mask>
                <g id="Mask"></g>
                <g mask="url(#mask-2)" stroke="#FEF7F4" stroke-width="2">
                    <g transform="translate(834.952669, 332.731025) scale(-1, -1) rotate(10.000000) translate(-834.952669, -332.731025) translate(-122.547331, 165.731025)">
                        <path d="M307,157 C307,157 621.716879,103.670515 756.421952,34.6253776 C880.262002,-28.8507659 1053.05171,55.2058958 1110.74678,73.2824773 C1197.03861,100.318731 1327.7091,83.9546828 1397.7992,87.5120846 C1536.79668,94.5668867 1709.92909,38.946435 1812,0" id="Stroke-1"></path>
                        <path d="M284,169 C288.481578,168.101818 628.329463,125.977906 773.440131,48.0270792 C895.72922,-17.6644933 1070.70862,67.5752222 1131.23052,88.2115741 C1216.40022,117.251357 1346.1072,101.632818 1418.73242,105.117602 C1555.29715,111.840916 1723.86771,58.9307576 1820,16" id="Stroke-3"></path>
                        <path d="M261,183 C269.959848,181.190722 635.029505,150.218924 790.435609,62.625052 C911.369983,-5.53884784 1088.36095,81.1949424 1151.69474,104.618563 C1235.8085,135.727496 1364.49026,120.89944 1439.65015,124.334752 C1573.78638,130.7696 1737.80039,80.2333228 1828,33" id="Stroke-5"></path>
                        <path d="M238,195 C251.434653,192.303314 641.835759,173.038116 807.409606,76.8267924 C927.151324,7.24758911 1106.02297,94.1041963 1172.13971,120.071344 C1255.26632,152.718126 1382.86984,138.88025 1460.55271,142.337107 C1592.28345,148.19888 1751.72681,100.91013 1836,50" id="Stroke-7"></path>
                        <path d="M213,207 C230.917869,203.406383 647.028054,195.782107 822.737195,90.338426 C941.4938,19.0725406 1122.26316,106.369003 1191.16786,135.072145 C1273.42326,169.337017 1399.95512,156.589951 1480.21831,159.997078 C1609.60915,165.489764 1764.60022,120.989514 1843,66.1373889" id="Stroke-9"></path>
                        <path d="M190,219 C212.403304,214.49081 654.375401,218.628223 840.080574,103.342947 C957.962282,30.1625013 1140.56167,118.134225 1212.20902,149.76715 C1293.65597,185.726115 1419.05026,174.103869 1501.89539,177.469149 C1628.94202,182.629485 1779.47791,140.717331 1852,81.6698729" id="Stroke-11"></path>
                        <path d="M166,231 C192.890471,225.605545 660.882964,241.595394 856.438147,117.137094 C973.538379,42.6103266 1157.92324,130.532884 1232.26286,164.936155 C1312.95927,202.281338 1437.15394,191.935734 1522.58185,195.228348 C1647.28072,200.03442 1793.35936,160.984876 1860,98.1417001" id="Stroke-13"></path>
                        <path d="M141,245 C172.361768,238.681427 666.249156,266.752875 871.385549,132.126552 C987.718098,55.7801485 1173.75254,144.16865 1250.68445,181.640476 C1330.64092,220.585381 1453.50411,211.504936 1541.46531,214.740034 C1663.7421,219.237464 1805.27888,182.764774 1866,115.676902" id="Stroke-15"></path>
                        <path d="M118,256.958577 C153.850899,249.760599 674.072688,289.819048 888.754194,145.89156 C1004.45863,68.3204502 1192.23735,156.443763 1271.74798,196.763611 C1351.06391,236.985078 1472.61371,229.28759 1563.15949,232.433646 C1683.0845,236.600346 1820.16288,202.959718 1875,132.108702" id="Stroke-17"></path>
                        <path d="M95,268.6963 C135.319334,260.579841 681.733793,312.928938 905.682268,158.821979 C1020.75598,79.6354783 1210.17051,167.899017 1292.15294,211.331609 C1370.8344,253.015484 1490.95053,246.70038 1584.03072,249.765756 C1701.53537,253.635466 1834.07824,222.628484 1883,147.627521" id="Stroke-19"></path>
                        <path d="M70,280.792556 C114.809983,271.794463 687.877024,336.287334 921.060869,172.607731 C1035.62541,92.191207 1226.78775,180.125985 1311.22575,226.517154 C1389.3644,269.447919 1508.06538,264.581111 1603.73191,267.542214 C1718.88225,271.10647 1846.96498,242.864059 1890,164.052377" id="Stroke-21"></path>
                        <path d="M48,293.448693 C97.2753874,283.604311 696.835184,360.027155 938.970347,187.284463 C1053.01224,105.925363 1245.83119,193.193598 1332.61423,242.411966 C1410.21234,286.42155 1527.38251,283.139144 1625.5891,285.877673 C1738.31443,289.250607 1861.87453,263.718653 1899,181.375328" id="Stroke-23"></path>
                        <path d="M24,306.640515 C77.7960387,295.840999 704.657509,385.117345 955.853964,201.329488 C1069.54043,118.151088 1264.24232,205.658374 1353.40121,258.281444 C1430.58406,303.836591 1546.31466,301.986243 1647.15939,304.66586 C1757.59051,307.723627 1876.74762,284.782886 1908,198.001953" id="Stroke-25"></path>
                        <path d="M0,317.637731 C58.2612079,305.973861 711.91947,407.44548 971.759515,214.086316 C1085.00964,129.811578 1281.40998,216.759933 1372.78636,272.378417 C1449.51064,319.078446 1563.63817,318.692913 1667.01401,321.290939 C1775.03213,324.005787 1889.65679,303.859943 1915,213.375437" id="Stroke-27"></path>
                    </g>
                </g>
            </g>
        </g>
    </g>
</svg>